<svg width="44" height="44" viewBox="0 0 44 44" fill="none" xmlns="http://www.w3.org/2000/svg">
<circle cx="22" cy="22" r="22" fill="url(#paint0_linear_2982_69517)"/>
<g filter="url(#filter0_d_2982_69517)">
<path d="M20.4125 13.1269L20.0225 13.0669C18.8125 12.8777 17.5738 13.0926 16.4982 13.6783C15.4227 14.264 14.5701 15.1878 14.0725 16.3069L13.9525 16.6069C12.6825 19.7501 12.6825 23.2637 13.9525 26.4069L14.0725 26.7069C14.569 27.8263 15.4217 28.75 16.4979 29.3342C17.5741 29.9184 18.8133 30.1303 20.0225 29.9369H20.4125C22.3877 29.6988 24.289 29.0401 25.9881 28.005C27.6873 26.97 29.1448 25.5828 30.2625 23.9369C30.7419 23.2208 30.9978 22.3786 30.9978 21.5169C30.9978 20.6552 30.7419 19.8129 30.2625 19.0969C29.1418 17.4565 27.6829 16.0751 25.9839 15.0453C24.285 14.0156 22.3853 13.3614 20.4125 13.1269V13.1269Z" fill="url(#paint1_linear_2982_69517)"/>
</g>
<defs>
<filter id="filter0_d_2982_69517" x="9" y="11" width="25.998" height="25.0066" filterUnits="userSpaceOnUse" color-interpolation-filters="sRGB">
<feFlood flood-opacity="0" result="BackgroundImageFix"/>
<feColorMatrix in="SourceAlpha" type="matrix" values="0 0 0 0 0 0 0 0 0 0 0 0 0 0 0 0 0 0 127 0" result="hardAlpha"/>
<feOffset dy="2"/>
<feGaussianBlur stdDeviation="2"/>
<feComposite in2="hardAlpha" operator="out"/>
<feColorMatrix type="matrix" values="0 0 0 0 1 0 0 0 0 0.491398 0 0 0 0 0.00416666 0 0 0 1 0"/>
<feBlend mode="normal" in2="BackgroundImageFix" result="effect1_dropShadow_2982_69517"/>
<feBlend mode="normal" in="SourceGraphic" in2="effect1_dropShadow_2982_69517" result="shape"/>
</filter>
<linearGradient id="paint0_linear_2982_69517" x1="22" y1="0" x2="22" y2="44" gradientUnits="userSpaceOnUse">
<stop stop-color="#FFD41D"/>
<stop offset="1" stop-color="#FF911D"/>
</linearGradient>
<linearGradient id="paint1_linear_2982_69517" x1="21.9989" y1="13" x2="21.9989" y2="30.0066" gradientUnits="userSpaceOnUse">
<stop stop-color="#FFFAEF"/>
<stop offset="1" stop-color="#FFF3C2"/>
</linearGradient>
</defs>
</svg>
